<svg width="534" height="320" viewBox="0 0 534 320" fill="none" xmlns="http://www.w3.org/2000/svg">
<rect width="534" height="320" rx="20" fill="#001AFF"/>
<path d="M118.166 77.6363V219C118.166 231.703 107.869 242 95.166 242H78.4395V109.636C78.4395 91.9632 92.7663 77.6363 110.439 77.6363H118.166Z" fill="white"/>
<path d="M454.919 77.6363V242H421.211L355.803 147.138H354.76V209.416V244.247H315.033V209.416V77.6363H349.222L413.908 172.338H415.273V77.6363H454.919Z" fill="white"/>
<path d="M354.76 244.247H315.033V209.416H221.071L220.268 244.247H354.76Z" fill="white"/>
<path d="M242.301 117.523C245.03 119.878 247.224 122.713 248.882 126.03L284.837 110.942C280.824 103.291 275.608 96.8442 269.187 91.6008C262.767 86.3039 255.33 82.2911 246.876 79.5625C238.422 76.7803 229.22 75.3892 219.268 75.3892C204.662 75.3892 191.473 78.6529 179.702 85.1804C167.931 91.7078 158.595 101.258 151.693 113.832C144.791 126.405 141.34 141.734 141.34 159.818C141.34 177.849 144.737 193.151 151.532 205.724C158.327 218.298 167.583 227.875 179.301 234.456C191.072 240.983 205.394 244.247 220.268 244.247L221.071 209.416C213.259 209.416 205.491 207.57 199.766 203.879C194.095 200.133 189.681 194.596 186.524 187.266C183.421 179.882 181.869 170.733 181.869 159.818C181.869 149.331 183.394 140.396 186.444 133.013C189.547 125.629 193.961 119.985 199.686 116.079C205.464 112.173 212.339 110.22 220.311 110.22C224.806 110.22 228.899 110.862 232.591 112.146C236.336 113.377 239.573 115.169 242.301 117.523Z" fill="white"/>
</svg>
